# File created by Blade
# Date/Time:  Tue Sep 30 19:09:10 2014
#---------------------------------------------------------
:version 1.10
:name HOM
:units
  mass 1.0
  length 1.000000
  angle deg
:documentation
     Acclaim Skeleton File
:root
   axis xyz
   order TX TY TZ RX RY RZ
   position 0.000000 0.000000 0.000000
   orientation 0 0 0
:bonedata
   begin
      id 1
      name Spine_dum
      direction 0.000000 1.000000 0.000000
      length 7.508948
      axis 0.0 0.0 0.0 xyz
   end
   begin
      id 2
      name LeftUpLeg_dum
      direction 1.000000 0.000000 0.000000
      length 3.000560
      axis 0.0 0.0 0.0 xyz
   end
   begin
      id 3
      name RightUpLeg_dum
      direction -1.000000 0.000000 0.000000
      length 3.000560
      axis 0.0 0.0 0.0 xyz
   end
   begin
      id 4
      name Spine
      direction 0.000000 1.000000 0.000000
      length 0.000000
      axis 0.0 0.0 0.0 xyz
      dof rx ry rz
   end
   begin
      id 5
      name Spine_dum1
      direction 0.000000 1.000000 0.000000
      length 13.861154
      axis 0.0 0.0 0.0 xyz
   end
   begin
      id 6
      name Spine_dum2
      direction 0.000000 1.000000 0.000000
      length 8.204781
      axis 0.0 0.0 0.0 xyz
   end
   begin
      id 7
      name Spine_dum3
      direction 0.000000 1.000000 0.000000
      length 8.204781
      axis 0.0 0.0 0.0 xyz
   end
   begin
      id 8
      name Head
      direction 0.000000 1.000000 0.000000
      length 4.527550
      axis 0.0 0.0 0.0 xyz
      dof rx ry rz
   end
   begin
      id 9
      name LeftShoulder
      direction 1.000000 0.000000 0.000000
      length 6.635956
      axis 0.0 0.0 -90.0 xyz
      dof rx ry rz
   end
   begin
      id 10
      name LeftArm
      direction 1.000000 0.000000 0.000000
      length 10.274218
      axis 0.0 0.0 -90.0 xyz
      dof rx ry rz
   end
   begin
      id 11
      name LeftForeArm
      direction 1.000000 0.000000 0.000000
      length 8.522147
      axis 0.0 0.0 -90.0 xyz
      dof ry rz rx
   end
   begin
      id 12
      name LeftHand
      direction 0.000000 0.000000 0.000000
      length 0.000000
      axis 0.0 0.0 -90.0 xyz
      dof rx ry rz
   end
   begin
      id 13
      name LeftHand_dum1
      direction 0.000000 0.000000 0.000000
      length 0.000000
      axis 0.0 0.0 -90.0 xyz
   end
   begin
      id 14
      name LeftHand_dum2
      direction 1.000000 0.000000 0.000000
      length 3.937000
      axis 0.0 0.0 -90.0 xyz
   end
   begin
      id 15
      name LeftHandThumb1
      direction 0.000000 0.000000 1.000000
      length 3.937000
      axis 0.0 0.0 -90.0 xyz
      dof rx rz ry
   end
   begin
      id 16
      name RightShoulder
      direction -1.000000 0.000000 0.000000
      length 6.635956
      axis 0.0 0.0 90.0 xyz
      dof rx ry rz
   end
   begin
      id 17
      name RightArm
      direction -1.000000 0.000000 0.000000
      length 10.274218
      axis 0.0 0.0 90.0 xyz
      dof rx ry rz
   end
   begin
      id 18
      name RightForeArm
      direction -1.000000 0.000000 0.000000
      length 8.522147
      axis 0.0 0.0 90.0 xyz
      dof ry rz rx
   end
   begin
      id 19
      name RightHand
      direction 0.000000 0.000000 0.000000
      length 0.000000
      axis 0.0 0.0 90.0 xyz
      dof rx ry rz
   end
   begin
      id 20
      name RightHand_dum1
      direction 0.000000 0.000000 0.000000
      length 0.000000
      axis 0.0 0.0 90.0 xyz
   end
   begin
      id 21
      name RightHand_dum2
      direction -1.000000 0.000000 0.000000
      length 3.937000
      axis 0.0 0.0 90.0 xyz
   end
   begin
      id 22
      name RightHandThumb1
      direction 0.000000 0.000000 1.000000
      length 3.937000
      axis 0.0 0.0 90.0 xyz
      dof rx rz ry
   end
   begin
      id 23
      name LeftUpLeg
      direction 0.000000 -1.000000 0.000000
      length 16.490845
      axis 0.0 0.0 0.0 xyz
      dof rx ry rz
   end
   begin
      id 24
      name LeftLeg
      direction 0.000000 -1.000000 0.000000
      length 14.556576
      axis 0.0 0.0 0.0 xyz
      dof rx ry rz
   end
   begin
      id 25
      name LeftFoot
      direction 0.000000 -0.258819 0.965926
      length 4.831116
      axis 15.0 0.0 0.0 xyz
      dof rx ry rz
   end
   begin
      id 26
      name LeftToeBase
      direction 0.000000 0.000000 1.000000
      length 2.952750
      axis 0.0 0.0 0.0 xyz
      dof rx ry rz
   end
   begin
      id 27
      name RightUpLeg
      direction 0.000000 -1.000000 0.000000
      length 16.490845
      axis 0.0 0.0 0.0 xyz
      dof rx ry rz
   end
   begin
      id 28
      name RightLeg
      direction 0.000000 -1.000000 0.000000
      length 14.556576
      axis 0.0 0.0 0.0 xyz
      dof rx ry rz
   end
   begin
      id 29
      name RightFoot
      direction 0.000000 -0.258819 0.965926
      length 4.831116
      axis 15.0 0.0 0.0 xyz
      dof rx ry rz
   end
   begin
      id 30
      name RightToeBase
      direction 0.000000 0.000000 1.000000
      length 2.952750
      axis 0.0 0.0 0.0 xyz
      dof rx ry rz
   end
:hierarchy
   begin
      root Spine_dum LeftUpLeg_dum RightUpLeg_dum
      Spine_dum Spine
      LeftUpLeg_dum LeftUpLeg
      RightUpLeg_dum RightUpLeg
      Spine Spine_dum1 Spine_dum2 Spine_dum3
      Spine_dum1 Head
      Spine_dum2 LeftShoulder
      Spine_dum3 RightShoulder
      LeftShoulder LeftArm
      LeftArm LeftForeArm
      LeftForeArm LeftHand
      LeftHand LeftHand_dum1 LeftHand_dum2
      LeftHand_dum1 LeftHandThumb1
      RightShoulder RightArm
      RightArm RightForeArm
      RightForeArm RightHand
      RightHand RightHand_dum1 RightHand_dum2
      RightHand_dum1 RightHandThumb1
      LeftUpLeg LeftLeg
      LeftLeg LeftFoot
      LeftFoot LeftToeBase
      RightUpLeg RightLeg
      RightLeg RightFoot
      RightFoot RightToeBase
   end

# File created by Blade
# Date/Time:  Wed Sep 24 19:42:34 2014
# Frame Rate: 120.000 fps
#------------------------------------------------------
:FULLY-SPECIFIED
:DEGREES
455
root -4.762338 32.995285 -2.730954 7.801047 6.684737 -2.069821
Spine -14.785957 13.095342 -1.982827
Head 13.295626 -25.049543 17.313157
LeftShoulder -9.213268 19.042348 10.562938
LeftArm 22.281611 38.076323 -70.093369
LeftForeArm -0.522787 -0.000000 25.119859
LeftHand -23.390627 -0.000000 -8.089855
LeftHandThumb1 -26.253704 0.000000 33.147579
RightShoulder -115.367869 53.308271 -179.161222
RightArm -22.303532 21.614349 46.012520
RightForeArm 69.422207 -0.000000 158.830305
RightHand 10.755505 -0.000000 7.836228
RightHandThumb1 -24.326973 -0.000000 -32.862282
LeftUpLeg -1.659484 2.253341 6.596876
LeftLeg -2.516254 -0.000000 0.000000
LeftFoot -7.795941 3.488551 -18.718754
LeftToeBase 9.971636 -0.000000 -0.000000
RightUpLeg -2.165203 -11.416062 0.789298
RightLeg 0.899249 -0.000000 -0.000000
RightFoot -6.379945 -5.076928 -14.559459
RightToeBase 0.199387 -0.000000 -0.000000
456
root -4.760909 32.994970 -2.728642 7.799219 6.673976 -2.073548
Spine -14.788291 13.113648 -1.984870
Head 13.313837 -25.072459 17.332713
LeftShoulder -9.196353 19.058424 10.560469
LeftArm 22.277559 38.101317 -70.080995
LeftForeArm -0.548246 -0.000000 25.108649
LeftHand -23.402128 -0.000000 -8.127840
LeftHandThumb1 -26.253704 0.000000 33.147579
RightShoulder -115.383239 53.298405 -179.183334
RightArm -22.342181 21.621856 46.018941
RightForeArm 69.458249 -0.000000 158.842424
RightHand 10.809435 -0.000000 7.907092
RightHandThumb1 -24.326973 -0.000000 -32.862282
LeftUpLeg -1.643188 2.278938 6.596656
LeftLeg -2.536084 -0.000000 0.000000
LeftFoot -7.782589 3.481012 -18.701634
LeftToeBase 9.955631 -0.000000 -0.000000
RightUpLeg -2.159260 -11.407300 0.789172
RightLeg 0.897782 -0.000000 -0.000000
RightFoot -6.380797 -5.088576 -14.573087
RightToeBase 0.206074 -0.000000 -0.000000
457
root -4.759934 32.994611 -2.727898 7.799174 6.679979 -2.073250
Spine -14.788698 13.110603 -1.988966
Head 13.344332 -25.083944 17.338735
LeftShoulder -9.184249 19.054265 10.557885
LeftArm 22.259171 38.142206 -70.069988
LeftForeArm -0.599505 -0.000000 25.093802
LeftHand -23.391920 -0.000000 -8.108001
LeftHandThumb1 -26.253704 0.000000 33.147579
RightShoulder -115.385087 53.293406 -179.185415
RightArm -22.378699 21.636949 46.034385
RightForeArm 69.520951 -0.000000 158.852904
RightHand 10.834513 -0.000000 7.983399
RightHandThumb1 -24.326973 -0.000000 -32.862282
LeftUpLeg -1.644045 2.272790 6.595160
LeftLeg -2.531319 -0.000000 0.000000
LeftFoot -7.789421 3.476303 -18.714679
LeftToeBase 10.032459 -0.000000 -0.000000
RightUpLeg -2.157002 -11.422761 0.788644
RightLeg 0.898427 -0.000000 -0.000000
RightFoot -6.386415 -5.068829 -14.561444
RightToeBase 0.195408 -0.000000 -0.000000
458
root -4.758150 32.994578 -2.726718 7.802681 6.670716 -2.072564
Spine -14.795887 13.125915 -1.996892
Head 13.374120 -25.084313 17.359598
LeftShoulder -9.170940 19.069134 10.549337
LeftArm 22.269622 38.171339 -70.042886
LeftForeArm -0.622421 -0.000000 25.051200
LeftHand -23.363033 -0.000000 -8.180271
LeftHandThumb1 -26.253704 0.000000 33.147579
RightShoulder -115.380695 53.291049 -179.184903
RightArm -22.422706 21.646851 46.037898
RightForeArm 69.589548 -0.000000 158.853401
RightHand 10.865730 -0.000000 8.076062
RightHandThumb1 -24.326973 -0.000000 -32.862282
LeftUpLeg -1.640695 2.274166 6.590105
LeftLeg -2.536169 -0.000000 0.000000
LeftFoot -7.799998 3.492391 -18.659494
LeftToeBase 10.026204 -0.000000 -0.000000
RightUpLeg -2.156277 -11.412838 0.783152
RightLeg 0.892577 -0.000000 -0.000000
RightFoot -6.382219 -5.075210 -14.564771
RightToeBase 0.198071 -0.000000 -0.000000
459
root -4.758234 32.994064 -2.727083 7.804486 6.686977 -2.073989
Spine -14.790602 13.108912 -1.997942
Head 13.386453 -25.061093 17.396594
LeftShoulder -9.154167 19.057013 10.555794
LeftArm 22.254995 38.213845 -70.041449
LeftForeArm -0.632265 0.000000 25.010933
LeftHand -23.372320 -0.000000 -8.208074
LeftHandThumb1 -26.253704 0.000000 33.147579
RightShoulder -115.378161 53.289423 -179.177957
RightArm -22.459697 21.657478 46.038862
RightForeArm 69.656632 -0.000000 158.855953
RightHand 10.846156 0.000000 8.159418
RightHandThumb1 -24.326973 -0.000000 -32.862282
LeftUpLeg -1.650206 2.253255 6.594200
LeftLeg -2.529990 -0.000000 0.000000
LeftFoot -7.798836 3.499028 -18.683058
LeftToeBase 9.991314 -0.000000 -0.000000
RightUpLeg -2.160034 -11.436278 0.788044
RightLeg 0.896939 -0.000000 -0.000000
RightFoot -6.384793 -5.070299 -14.574073
RightToeBase 0.197885 -0.000000 -0.000000
460
root -4.758976 32.994062 -2.726139 7.810457 6.673256 -2.084678
Spine -14.800743 13.109520 -1.996178
Head 13.415809 -25.012469 17.443505
LeftShoulder -9.167326 19.075403 10.552911
LeftArm 22.291063 38.275928 -69.996137
LeftForeArm -0.665198 0.000000 24.951141
LeftHand -23.336129 -0.000000 -8.220047
LeftHandThumb1 -26.253704 0.000000 33.147579
RightShoulder -115.406996 53.289202 -179.208940
RightArm -22.520421 21.646340 46.034603
RightForeArm 69.643191 0.000000 158.864067
RightHand 10.845201 -0.000000 8.231205
RightHandThumb1 -24.326973 -0.000000 -32.862282
LeftUpLeg -1.657614 2.271436 6.606478
LeftLeg -2.518075 -0.000000 0.000000
LeftFoot -7.804566 3.470083 -18.719672
LeftToeBase 9.989926 -0.000000 -0.000000
RightUpLeg -2.168617 -11.457663 0.794669
RightLeg 0.901501 -0.000000 -0.000000
RightFoot -6.405889 -5.002264 -14.540786
RightToeBase 0.159446 -0.000000 -0.000000
461
root -4.761909 32.994392 -2.726600 7.822330 6.651258 -2.111078
Spine -14.817040 13.122709 -1.985885
Head 13.437302 -24.976239 17.491417
LeftShoulder -9.166290 19.082718 10.562065
LeftArm 22.309802 38.330420 -69.974682
LeftForeArm -0.637878 0.000000 24.883425
LeftHand -23.341777 -0.000000 -8.237454
LeftHandThumb1 -26.253704 0.000000 33.147579
RightShoulder -115.438644 53.288124 -179.221826
RightArm -22.544337 21.589070 46.047590
RightForeArm 69.569571 -0.000000 158.870969
RightHand 10.857022 -0.000000 8.268913
RightHandThumb1 -24.326973 -0.000000 -32.862282
LeftUpLeg -1.671945 2.272283 6.637405
LeftLeg -2.507820 -0.000000 0.000000
LeftFoot -7.825428 3.490624 -18.716567
LeftToeBase 9.983609 -0.000000 -0.000000
RightUpLeg -2.144398 -11.333247 0.817639
RightLeg 0.816117 -0.000000 -0.000000
RightFoot -6.338481 -5.044560 -14.465260
RightToeBase 0.206760 -0.000000 -0.000000
462
root -4.760254 32.994188 -2.726192 7.827778 6.636844 -2.111875
Spine -14.823556 13.125456 -1.993302
Head 13.453873 -24.941193 17.540209
LeftShoulder -9.168169 19.082497 10.569563
LeftArm 22.310659 38.374480 -69.972375
LeftForeArm -0.618375 -0.000000 24.819491
LeftHand -23.368549 -0.000000 -8.261852
LeftHandThumb1 -26.253704 0.000000 33.147579
RightShoulder -115.444836 53.299546 -179.212640
RightArm -22.561844 21.539346 46.055137
RightForeArm 69.517054 0.000000 158.881413
RightHand 10.881473 0.000000 8.380748
RightHandThumb1 -24.326973 -0.000000 -32.862282
LeftUpLeg -1.674133 2.275165 6.634143
LeftLeg -2.506382 -0.000000 0.000000
LeftFoot -7.837727 3.494034 -18.742733
LeftToeBase 10.009955 -0.000000 -0.000000
RightUpLeg -2.146382 -11.315813 0.814291
RightLeg 0.808386 -0.000000 -0.000000
RightFoot -6.333806 -5.045980 -14.471623
RightToeBase 0.183962 -0.000000 -0.000000
463
root -4.755894 32.992859 -2.724184 7.825512 6.624243 -2.087813
Spine -14.813267 13.135290 -2.021064
Head 13.447606 -24.908666 17.582440
LeftShoulder -9.176041 19.086624 10.577549
LeftArm 22.342341 38.441390 -69.941375
LeftForeArm -0.629294 -0.000000 24.757237
LeftHand -23.410635 -0.000000 -8.260897
LeftHandThumb1 -26.253704 0.000000 33.147579
RightShoulder -115.533648 53.263128 -179.358364
RightArm -22.689460 21.422519 46.017774
RightForeArm 69.470094 -0.000000 158.904485
RightHand 10.910815 -0.000000 8.541575
RightHandThumb1 -24.326973 -0.000000 -32.862282
LeftUpLeg -1.660104 2.239102 6.603360
LeftLeg -2.509041 -0.000000 0.000000
LeftFoot -7.870712 3.532110 -18.759964
LeftToeBase 10.059295 -0.000000 -0.000000
RightUpLeg -2.182812 -11.440480 0.790980
RightLeg 0.898998 -0.000000 -0.000000
RightFoot -6.419635 -4.981874 -14.546005
RightToeBase 0.165144 -0.000000 -0.000000
464
root -4.754493 32.992657 -2.723154 7.825932 6.601423 -2.089095
Spine -14.813326 13.141626 -2.024680
Head 13.462748 -24.876993 17.621829
LeftShoulder -9.182422 19.093851 10.586324
LeftArm 22.333673 38.459651 -69.954890
LeftForeArm -0.607985 -0.000000 24.699381
LeftHand -23.432021 0.000000 -8.241612
LeftHandThumb1 -26.253704 0.000000 33.147579
RightShoulder -115.578771 53.249546 -179.400295
RightArm -22.708322 21.319893 46.055845
RightForeArm 69.390757 -0.000000 158.937987
RightHand 10.914091 -0.000000 8.652551
RightHandThumb1 -24.326973 -0.000000 -32.862282
LeftUpLeg -1.652306 2.241716 6.599728
LeftLeg -2.511409 -0.000000 0.000000
LeftFoot -7.868767 3.554107 -18.728768
LeftToeBase 9.992697 -0.000000 -0.000000
RightUpLeg -2.190071 -11.441709 0.789920
RightLeg 0.911358 -0.000000 -0.000000
RightFoot -6.421554 -4.970367 -14.572021
RightToeBase 0.174170 -0.000000 -0.000000
465
root -4.753933 32.992671 -2.722867 7.826676 6.579550 -2.090640
Spine -14.814948 13.156814 -2.030017
Head 13.490264 -24.866348 17.636624
LeftShoulder -9.156684 19.104584 10.603443
LeftArm 22.319240 38.463982 -69.974918
LeftForeArm -0.614393 -0.000000 24.642130
LeftHand -23.422964 -0.000000 -8.211709
LeftHandThumb1 -26.253704 0.000000 33.147579
RightShoulder -115.506741 53.264682 -179.275897
RightArm -22.610203 21.246305 46.178459
RightForeArm 69.282719 0.000000 158.969730
RightHand 10.934186 0.000000 8.764517
RightHandThumb1 -24.326973 -0.000000 -32.862282
LeftUpLeg -1.648718 2.229970 6.599652
LeftLeg -2.509942 -0.000000 0.000000
LeftFoot -7.885949 3.587359 -18.719062
LeftToeBase 10.047383 -0.000000 -0.000000
RightUpLeg -2.191138 -11.427980 0.787324
RightLeg 0.910928 -0.000000 -0.000000
RightFoot -6.429417 -4.960065 -14.555408
RightToeBase 0.196329 -0.000000 -0.000000
466
root -4.750988 32.991673 -2.719131 7.819286 6.528269 -2.102715
Spine -14.815508 13.198313 -2.009179
Head 13.514496 -24.851847 17.622533
LeftShoulder -9.156389 19.128680 10.610372
LeftArm 22.316119 38.490232 -69.989802
LeftForeArm -0.642277 -0.000000 24.588601
LeftHand -23.412414 -0.000000 -8.189570
LeftHandThumb1 -26.253704 0.000000 33.147579
RightShoulder -115.479025 53.275966 -179.248573
RightArm -22.580693 21.196264 46.238715
RightForeArm 69.182079 0.000000 159.019187
RightHand 10.951866 -0.000000 8.858742
RightHandThumb1 -24.326973 -0.000000 -32.862282
LeftUpLeg -1.615970 2.273215 6.599956
LeftLeg -2.528376 -0.000000 0.000000
LeftFoot -7.901002 3.597553 -18.722935
LeftToeBase 10.023849 -0.000000 -0.000000
RightUpLeg -2.180834 -11.395806 0.785693
RightLeg 0.908479 -0.000000 -0.000000
RightFoot -6.440225 -4.935570 -14.545978
RightToeBase 0.181105 -0.000000 -0.000000
467
root -4.752630 32.992590 -2.719278 7.826206 6.503819 -2.126503
Spine -14.825581 13.222776 -1.987319
Head 13.537623 -24.838938 17.632303
LeftShoulder -9.127915 19.111759 10.625766
LeftArm 22.248650 38.486808 -70.040716
LeftForeArm -0.660490 -0.000000 24.556436
LeftHand -23.409147 0.000000 -8.213409
LeftHandThumb1 -26.253704 0.000000 33.147579
RightShoulder -115.449829 53.259452 -179.159914
RightArm -22.469053 21.088010 46.383894
RightForeArm 68.991492 -0.000000 159.063129
RightHand 10.961763 0.000000 8.943104
RightHandThumb1 -24.326973 -0.000000 -32.862282
LeftUpLeg -1.620993 2.282705 6.625312
LeftLeg -2.527000 -0.000000 0.000000
LeftFoot -7.909658 3.608336 -18.722623
LeftToeBase 10.071313 -0.000000 -0.000000
RightUpLeg -2.148723 -11.262805 0.803494
RightLeg 0.817071 -0.000000 -0.000000
RightFoot -6.355595 -4.994370 -14.508888
RightToeBase 0.195534 -0.000000 -0.000000
